<?xml version="1.0" encoding="utf-8"?>
<!-- Generator: Adobe Illustrator 16.0.0, SVG Export Plug-In . SVG Version: 6.00 Build 0)  -->
<!DOCTYPE svg PUBLIC "-//W3C//DTD SVG 1.1//EN" "http://www.w3.org/Graphics/SVG/1.1/DTD/svg11.dtd">
<svg version="1.1" xmlns="http://www.w3.org/2000/svg" xmlns:xlink="http://www.w3.org/1999/xlink" x="0px" y="0px" width="125px"
	 height="70px" viewBox="0 0 125 70" enable-background="new 0 0 125 70" xml:space="preserve">
<g id="图层_2" display="none">
	<rect x="-21" y="-8.5" display="inline" fill="#050505" stroke="#000000" stroke-miterlimit="10" width="163" height="100"/>
</g>
<g id="Layer_1">
	<g>
		<path fill="#0C101D" d="M68.891,5.495v5.745h-0.945V5.495h-2.092V4.641h5.126v0.854H68.891z"/>
		<path fill="#0C101D" d="M78.608,11.24V8.125h-3.77v3.115h-0.943v-6.6h0.943v2.632h3.771V4.641h0.94v6.6L78.608,11.24L78.608,11.24
			z"/>
		<path fill="#0C101D" d="M83.028,11.24v-6.6h4.176v0.854h-3.232v1.777h2.522v0.853h-2.522v2.264h3.232v0.852H83.028z"/>
	</g>
	<g>
		<g>
			<path fill="#0C101D" d="M92.219,58.288c-4.469,0-8.998-0.843-13.582-1.83c-0.266-0.059-0.438-0.326-0.383-0.595
				c0.06-0.271,0.324-0.441,0.594-0.382c8.74,1.883,17.254,3.226,25.423-0.93c0.243-0.127,0.547-0.029,0.673,0.215
				c0.125,0.248,0.025,0.549-0.221,0.672C100.612,57.536,96.44,58.288,92.219,58.288z"/>
			<path fill="#0C101D" d="M48.683,56.961c-0.179,0-0.352-0.097-0.441-0.267c-0.129-0.242-0.035-0.545,0.211-0.674
				c9.593-5.062,19.444-2.92,28.971-0.851l1.426,0.312c0.27,0.057,0.441,0.322,0.386,0.595c-0.06,0.269-0.325,0.444-0.597,0.382
				l-1.428-0.311c-9.353-2.032-19.021-4.133-28.292,0.757C48.845,56.944,48.764,56.961,48.683,56.961z"/>
		</g>
		<g>
			<path fill="#0C101D" d="M81.725,51.433c-0.033,0-0.064-0.004-0.096-0.011c-1.076-0.21-2.166-0.434-3.272-0.661l-1.093-0.227
				c-8.766-1.816-18.696-3.88-28.511,0.202c-0.257,0.104-0.549-0.015-0.653-0.271c-0.105-0.257,0.014-0.545,0.268-0.654
				c10.102-4.197,20.194-2.104,29.1-0.258l1.093,0.226c1.104,0.229,2.188,0.45,3.263,0.661c0.27,0.054,0.445,0.314,0.393,0.592
				C82.17,51.267,81.963,51.433,81.725,51.433z"/>
			<path fill="#0C101D" d="M92.321,52.669c-3.326,0-6.865-0.492-10.694-1.247c-0.27-0.053-0.443-0.315-0.395-0.587
				c0.056-0.271,0.318-0.445,0.589-0.395c12.001,2.367,17.603,1,22.312-1.78c0.237-0.14,0.545-0.062,0.688,0.176
				c0.141,0.238,0.061,0.546-0.178,0.687C100.773,51.806,96.731,52.669,92.321,52.669z"/>
		</g>
	</g>
	<text transform="matrix(1.14 0 0 1 34.9805 35)" fill="#0C101D" font-family="'BrowalliaNew'" font-size="15">MY HOME</text>
</g>
</svg>
