<?xml version="1.0" encoding="utf-8"?>
<!-- Generator: Adobe Illustrator 16.0.0, SVG Export Plug-In . SVG Version: 6.00 Build 0)  -->
<!DOCTYPE svg PUBLIC "-//W3C//DTD SVG 1.1//EN" "http://www.w3.org/Graphics/SVG/1.1/DTD/svg11.dtd">
<svg version="1.1" id="图层_1" xmlns="http://www.w3.org/2000/svg" xmlns:xlink="http://www.w3.org/1999/xlink" x="0px" y="0px"
	 width="400px" height="261px" viewBox="0 0 400 261" enable-background="new 0 0 400 261" xml:space="preserve">
<g id="图层_2" display="none">
	<rect x="-52.5" y="-18" display="inline" stroke="#000000" stroke-miterlimit="10" width="551" height="318"/>
</g>
<g id="Layer_1">
	<g>
		<path fill="#FFFFFF" d="M192.347,13.714v13.192h-2.166V13.714h-4.803v-1.959h11.772v1.959H192.347z"/>
		<path fill="#FFFFFF" d="M214.665,26.906v-7.148h-8.659v7.148h-2.164V11.755h2.164v6.041h8.659v-6.041h2.163v15.151H214.665z"/>
		<path fill="#FFFFFF" d="M224.807,26.906V11.755h9.584v1.959h-7.416v4.082h5.793v1.962h-5.793v5.187h7.416v1.961H224.807z"/>
	</g>
	<g>
		<g>
			<path fill="#FFFFFF" d="M271.873,251c-17.451,0-35.137-3.286-53.044-7.145c-1.058-0.229-1.728-1.269-1.499-2.323
				c0.227-1.056,1.268-1.731,2.322-1.499c34.125,7.359,67.394,12.609,99.3-3.639c0.959-0.483,2.136-0.102,2.625,0.858
				c0.491,0.965,0.106,2.14-0.851,2.626C304.662,248.063,288.373,251,271.873,251z"/>
			<path fill="#FFFFFF" d="M101.818,245.822c-0.699,0-1.379-0.375-1.729-1.043c-0.504-0.949-0.141-2.135,0.817-2.639
				c37.488-19.773,75.958-11.408,113.167-3.316l5.581,1.209c1.051,0.229,1.727,1.269,1.496,2.322c-0.229,1.057-1.269,1.731-2.32,1.5
				l-5.592-1.213c-36.519-7.943-74.284-16.15-110.508,2.955C102.442,245.755,102.128,245.822,101.818,245.822z"/>
		</g>
		<g>
			<path fill="#FFFFFF" d="M230.884,224.221c-0.123,0-0.251-0.015-0.375-0.035c-4.2-0.819-8.461-1.696-12.782-2.592l-4.265-0.881
				c-34.239-7.104-73.037-15.15-111.376,0.792c-0.999,0.418-2.143-0.056-2.552-1.053c-0.419-0.995,0.052-2.14,1.05-2.558
				c39.455-16.402,78.882-8.226,113.666-1.012l4.273,0.881c4.303,0.894,8.545,1.768,12.731,2.58c1.062,0.213,1.75,1.237,1.545,2.295
				C232.618,223.572,231.801,224.221,230.884,224.221z"/>
			<path fill="#FFFFFF" d="M272.277,229.063c-12.996,0-26.814-1.932-41.775-4.879c-1.059-0.211-1.745-1.235-1.537-2.295
				c0.209-1.062,1.23-1.75,2.293-1.539c46.887,9.237,68.754,3.9,87.161-6.957c0.925-0.547,2.125-0.244,2.674,0.688
				c0.55,0.93,0.242,2.127-0.69,2.678C305.295,225.672,289.503,229.063,272.277,229.063z"/>
		</g>
	</g>
</g>
<text transform="matrix(1 0 0 1 156.7778 93.9497)"><tspan x="0" y="0" fill="#FFFFFF" font-family="'ArialMT'" font-size="71.4096">MY</tspan><tspan x="-53.557" y="85.692" fill="#FFFFFF" font-family="'ArialMT'" font-size="71.4096">HOME</tspan></text>
</svg>
