<?xml version="1.0" encoding="utf-8"?>
<!-- Generator: Adobe Illustrator 16.0.0, SVG Export Plug-In . SVG Version: 6.00 Build 0)  -->
<!DOCTYPE svg PUBLIC "-//W3C//DTD SVG 1.1//EN" "http://www.w3.org/Graphics/SVG/1.1/DTD/svg11.dtd">
<svg version="1.1" id="图层_1" xmlns="http://www.w3.org/2000/svg" xmlns:xlink="http://www.w3.org/1999/xlink" x="0px" y="0px"
	 width="300px" height="13px" viewBox="0 0 300 13" enable-background="new 0 0 300 13" xml:space="preserve">
<g id="图层_2" display="none">
	<rect x="-301.5" y="-147" display="inline" stroke="#000000" stroke-miterlimit="10" width="700" height="290"/>
</g>
<g id="Layer_1">
	<g>
		<g>
			<g>
				<g>
					<g>
						<path fill="#FFFFFF" d="M26.572,11.549c-2.498,0-5.03-0.471-7.593-1.021c-0.151-0.031-0.248-0.185-0.213-0.332
							c0.031-0.149,0.181-0.25,0.331-0.215c4.887,1.054,9.65,1.806,14.217-0.521c0.138-0.069,0.306-0.015,0.377,0.123
							c0.07,0.137,0.014,0.308-0.123,0.375C31.268,11.128,28.934,11.549,26.572,11.549z"/>
						<path fill="#FFFFFF" d="M26.572,12.229c-2.427,0-4.849-0.416-7.737-1.037c-0.25-0.053-0.465-0.201-0.603-0.42
							c-0.14-0.215-0.186-0.472-0.13-0.723c0.091-0.434,0.485-0.755,0.933-0.755l0.209,0.024c2.762,0.592,5.065,0.99,7.32,0.99
							c2.412,0,4.518-0.475,6.439-1.455L33.15,8.78l0.29-0.03c0.362,0,0.689,0.201,0.855,0.521c0.116,0.229,0.137,0.488,0.057,0.732
							c-0.079,0.244-0.25,0.441-0.478,0.561C31.674,11.684,29.286,12.229,26.572,12.229z"/>
					</g>
					<g>
						<path fill="#FFFFFF" d="M2.229,10.809c-0.101,0-0.198-0.055-0.248-0.147c-0.071-0.138-0.02-0.306,0.118-0.378
							c5.365-2.832,10.875-1.633,16.2-0.479l0.798,0.176c0.153,0.033,0.249,0.183,0.215,0.334c-0.031,0.149-0.182,0.248-0.333,0.213
							l-0.8-0.174C12.951,9.217,7.545,8.043,2.36,10.775C2.317,10.798,2.271,10.809,2.229,10.809z"/>
						<path fill="#FFFFFF" d="M2.229,11.488c-0.356,0-0.68-0.195-0.848-0.512c-0.12-0.229-0.144-0.488-0.067-0.735
							c0.077-0.244,0.243-0.443,0.472-0.563c2.322-1.223,4.849-1.82,7.722-1.82c3.021,0,6.027,0.652,8.934,1.285l0.8,0.174
							c0.247,0.053,0.463,0.201,0.601,0.416c0.142,0.218,0.188,0.475,0.133,0.727c-0.092,0.436-0.486,0.754-0.936,0.754
							l-0.209-0.021l-0.796-0.172c-2.797-0.608-5.691-1.24-8.517-1.24c-2.563,0-4.801,0.523-6.841,1.601l-0.148,0.079L2.229,11.488z
							"/>
					</g>
				</g>
				<g>
					<g>
						<path fill="#FFFFFF" d="M20.707,5.952c-0.019,0-0.038,0-0.055-0.004c-0.602-0.118-1.212-0.242-1.831-0.37L18.21,5.45
							C13.31,4.434,7.756,3.283,2.267,5.565C2.124,5.624,1.961,5.556,1.901,5.413C1.842,5.27,1.91,5.107,2.051,5.047
							C7.7,2.699,13.343,3.869,18.325,4.902l0.61,0.126c0.616,0.128,1.225,0.254,1.822,0.37c0.152,0.03,0.252,0.177,0.223,0.328
							C20.952,5.86,20.837,5.952,20.707,5.952z"/>
						<path fill="#FFFFFF" d="M20.707,6.63l-0.175-0.014c-0.566-0.11-1.129-0.228-1.7-0.344l-0.759-0.157
							C15.239,5.527,12.31,4.919,9.28,4.919c-2.485,0-4.695,0.417-6.75,1.271L2.402,6.243L2.159,6.264
							c-0.388,0-0.734-0.23-0.884-0.588c-0.1-0.236-0.101-0.499-0.003-0.734C1.37,4.703,1.553,4.52,1.79,4.42
							C4.09,3.464,6.539,3,9.276,3c3.217,0,6.387,0.656,9.182,1.236l0.615,0.126c0.615,0.128,1.219,0.254,1.815,0.369
							c0.25,0.048,0.468,0.19,0.611,0.404c0.145,0.212,0.197,0.469,0.148,0.72C21.553,6.31,21.158,6.63,20.707,6.63z"/>
					</g>
					<g>
						<path fill="#FFFFFF" d="M26.632,6.646c-1.86,0-3.838-0.278-5.98-0.7C20.5,5.917,20.401,5.771,20.43,5.62
							c0.03-0.152,0.175-0.252,0.33-0.222c6.711,1.323,9.843,0.56,12.476-0.996c0.132-0.078,0.305-0.034,0.384,0.1
							c0.078,0.132,0.033,0.303-0.099,0.383C31.358,6.161,29.098,6.646,26.632,6.646z"/>
						<path fill="#FFFFFF" d="M26.632,7.325c-1.707,0-3.651-0.226-6.111-0.711c-0.25-0.049-0.468-0.192-0.612-0.407
							c-0.143-0.214-0.193-0.47-0.143-0.722c0.084-0.443,0.481-0.771,0.939-0.771l0.188,0.019c2.27,0.447,4.173,0.665,5.82,0.665
							c3.088,0,4.857-0.8,6.178-1.58c0.44-0.259,1.059-0.097,1.315,0.342c0.128,0.219,0.164,0.477,0.1,0.726
							c-0.065,0.247-0.222,0.453-0.441,0.583C31.719,6.735,29.421,7.325,26.632,7.325z"/>
					</g>
				</g>
			</g>
		</g>
	</g>
	<g>
		<path fill="#FFFFFF" d="M48.225,12.391V3.118h-3.336V0.98h9.101v2.138h-3.32v9.271h-2.445V12.391z"/>
		<path fill="#FFFFFF" d="M64.361,12.391V7.583h-5.388v4.808h-2.43V0.98h2.43v4.482h5.388V0.98h2.447v11.411H64.361z"/>
		<path fill="#FFFFFF" d="M71.04,12.391V0.98h8.075v2.138H73.47v2.396h5.525v2.138H73.47v2.601h5.645v2.138H71.04z"/>
	</g>
	<rect x="90.25" y="-1.02" fill="none" width="111" height="13.059"/>
	<text transform="matrix(1 0 0 1 91.5005 11.8164)" fill="#FFFFFF" font-family="'FranklinGothic-Demi'" font-size="16.2648">MY HOME</text>
</g>
</svg>
